<?xml version="1.0" encoding="UTF-8" standalone="no"?>
<!-- Created with Inkscape (http://www.inkscape.org/) -->

<svg
   xmlns:dc="http://purl.org/dc/elements/1.1/"
   xmlns:cc="http://creativecommons.org/ns#"
   xmlns:rdf="http://www.w3.org/1999/02/22-rdf-syntax-ns#"
   xmlns:svg="http://www.w3.org/2000/svg"
   xmlns="http://www.w3.org/2000/svg"
   xmlns:sodipodi="http://sodipodi.sourceforge.net/DTD/sodipodi-0.dtd"
   xmlns:inkscape="http://www.inkscape.org/namespaces/inkscape"
   width="800"
   height="260"
   viewBox="0 0 800.00002 260.00001"
   id="svg2"
   version="1.1"
   inkscape:version="0.91 r13725"
   sodipodi:docname="drawing_with_name_v2.svg"
   inkscape:export-filename="/Users/rahulrvp/Misc/logo_with_text_v2.png"
   inkscape:export-xdpi="90"
   inkscape:export-ydpi="90">
  <defs
     id="defs4" />
  <sodipodi:namedview
     id="base"
     pagecolor="#ffffff"
     bordercolor="#666666"
     borderopacity="1.0"
     inkscape:pageopacity="0.0"
     inkscape:pageshadow="2"
     inkscape:zoom="0.49497475"
     inkscape:cx="745.28692"
     inkscape:cy="61.126817"
     inkscape:document-units="px"
     inkscape:current-layer="layer1"
     showgrid="false"
     inkscape:window-width="1280"
     inkscape:window-height="709"
     inkscape:window-x="0"
     inkscape:window-y="1"
     inkscape:window-maximized="1"
     units="px" />
  <metadata
     id="metadata7">
    <rdf:RDF>
      <cc:Work
         rdf:about="">
        <dc:format>image/svg+xml</dc:format>
        <dc:type
           rdf:resource="http://purl.org/dc/dcmitype/StillImage" />
        <dc:title></dc:title>
      </cc:Work>
    </rdf:RDF>
  </metadata>
  <g
     inkscape:label="Layer 1"
     inkscape:groupmode="layer"
     id="layer1"
     transform="translate(0,-792.36216)">
    <g
       id="g4390"
       transform="matrix(0.72080889,0,0,0.72080889,110.85923,808.30065)">
      <path
         style="fill:#bc0000;fill-opacity:1"
         d="m 123.51758,34.005859 0,249.062501 0.31445,0 a 91.715243,91.715243 0 0 0 91.47852,86.9668 91.715243,91.715243 0 0 0 91.71484,-91.71485 91.715243,91.715243 0 0 0 -91.71484,-91.71484 91.715243,91.715243 0 0 0 -47.54688,13.41992 l 0,-166.019531 -44.24609,0 z M 217.2207,221.16406 a 54.021296,54.826686 0 0 1 54.02149,54.82617 54.021296,54.826686 0 0 1 -54.02149,54.82618 54.021296,54.826686 0 0 1 -54.02148,-54.82618 54.021296,54.826686 0 0 1 54.02148,-54.82617 z"
         transform="matrix(0.84890076,0,0,0.84890076,-87.423714,-15.302361)"
         id="rect4136"
         inkscape:connector-curvature="0" />
      <g
         transform="translate(-27.274119,6.0609153)"
         style="fill:#601d1d;fill-opacity:1"
         id="g4335">
        <path
           style="fill:#601d1d;fill-opacity:1"
           d="m 205.60876,109.97911 a 47.477169,47.477169 0 0 0 -25.58399,7.75 47.477169,47.477169 0 0 0 -18.73633,23.93946 l 0.51368,0.7832 a 77.85714,77.85714 0 0 1 43.45898,62.35937 47.477169,47.477169 0 0 0 26.76563,-7.63281 47.477169,47.477169 0 0 0 13.72265,-65.72461 47.477169,47.477169 0 0 0 -40.14062,-21.47461 z"
           id="path4242"
           inkscape:connector-curvature="0" />
        <path
           style="fill:#601d1d;fill-opacity:1"
           d="M 122.66602,66.5 A 47.477169,47.477169 0 0 0 88.480469,83.330078 l 0,56.283202 A 77.85714,77.85714 0 0 1 162.35352,142.6875 47.477169,47.477169 0 0 0 172.11914,116.625 47.477169,47.477169 0 0 0 127.41211,66.533203 47.477169,47.477169 0 0 0 122.66602,66.5 Z"
           id="path4242-5"
           inkscape:connector-curvature="0" />
        <path
           style="fill:#601d1d;fill-opacity:1"
           d="m 256.76644,222.49776 a 47.477169,47.477169 0 0 0 -20.80941,-16.7801 47.477169,47.477169 0 0 0 -30.33356,-2.00579 l -0.35804,0.86549 a 77.85714,77.85714 0 0 1 -27.06748,71.02623 47.477169,47.477169 0 0 0 21.37787,17.82263 47.477169,47.477169 0 0 0 62.04351,-25.66393 47.477169,47.477169 0 0 0 -4.85289,-45.26453 z"
           id="path4242-0"
           inkscape:connector-curvature="0" />
      </g>
    </g>
    <flowRoot
       xml:space="preserve"
       id="flowRoot3400"
       style="font-style:normal;font-weight:normal;font-size:40px;line-height:125%;font-family:sans-serif;text-align:center;letter-spacing:0px;word-spacing:0px;text-anchor:middle;fill:#000000;fill-opacity:1;stroke:none;stroke-width:1px;stroke-linecap:butt;stroke-linejoin:miter;stroke-opacity:1"
       transform="matrix(3.1009529,0,0,3.1009529,-326.76976,-347.49629)"><flowRegion
         id="flowRegion3402"><rect
           id="rect3404"
           width="308.57144"
           height="62.857143"
           x="105.71429"
           y="397.14285"
           style="text-align:center;text-anchor:middle" /></flowRegion><flowPara
         id="flowPara3406"
         style="font-style:normal;font-variant:normal;font-weight:bold;font-stretch:normal;font-size:29.02333641px;font-family:sans-serif;-inkscape-font-specification:'sans-serif Bold';fill:#502d16">BRACT</flowPara></flowRoot>  </g>
</svg>
